HIERARCHY
ROOT root     
{
	OFFSET 0.0000 0.0000 0.0000
	CHANNELS 6 Xposition Yposition Zposition Zrotation Yrotation Xrotation
	JOINT pelvis   
	{
		OFFSET 0.0000 0.0000 0.0000
		CHANNELS 3 Zrotation Yrotation Xrotation
		JOINT thorax   
		{
			OFFSET 0.0000 23.0750 -5.0000
			CHANNELS 3 Zrotation Yrotation Xrotation
			JOINT rclavicle
			{
				OFFSET 0.0000 28.0009 0.0000
				CHANNELS 3 Zrotation Yrotation Xrotation
				JOINT rhumerus 
				{
					OFFSET -18.5725 5.5939 0.0000
					CHANNELS 3 Zrotation Yrotation Xrotation
					JOINT rradius  
					{
						OFFSET -24.8459 0.0000 0.0000
						CHANNELS 3 Zrotation Yrotation Xrotation
						JOINT rhand    
						{
							OFFSET -24.5477 0.0000 0.0000
							CHANNELS 3 Zrotation Yrotation Xrotation
							End Site
							{
								OFFSET -8.1826 0.0000 0.0000
							}
						}
					}
				}
			}
			JOINT lclavicle
			{
				OFFSET 0.0000 28.0009 0.0000
				CHANNELS 3 Zrotation Yrotation Xrotation
				JOINT lhumerus 
				{
					OFFSET 18.5725 5.5939 0.0000
					CHANNELS 3 Zrotation Yrotation Xrotation
					JOINT lradius  
					{
						OFFSET 24.8459 0.0000 0.0000
						CHANNELS 3 Zrotation Yrotation Xrotation
						JOINT lhand    
						{
							OFFSET 24.5477 0.0000 0.0000
							CHANNELS 3 Zrotation Yrotation Xrotation
							End Site
							{
								OFFSET 8.1826 0.0000 0.0000
							}
						}
					}
				}
			}
			JOINT head     
			{
				OFFSET 0.0000 35.2030 0.0000
				CHANNELS 3 Zrotation Yrotation Xrotation
				End Site
				{
					OFFSET 0.0000 11.7343 0.0000
				}
			}
		}
		JOINT rfemur   
		{
			OFFSET -8.2817 0.0000 0.0000
			CHANNELS 3 Zrotation Yrotation Xrotation
			JOINT rtibia   
			{
				OFFSET 0.0000 -43.3627 0.0000
				CHANNELS 3 Zrotation Yrotation Xrotation
				JOINT rfoot    
				{
					OFFSET 0.0000 -38.2947 0.0000
					CHANNELS 3 Zrotation Yrotation Xrotation
					JOINT rtoes    
					{
						OFFSET 0.0000 0.0000 16.6054
						CHANNELS 3 Zrotation Yrotation Xrotation
						End Site
						{
							OFFSET 0.0000 0.0000 5.5351
						}
					}
				}
			}
		}
		JOINT lfemur   
		{
			OFFSET 8.2817 0.0000 0.0000
			CHANNELS 3 Zrotation Yrotation Xrotation
			JOINT ltibia   
			{
				OFFSET 0.0000 -43.3627 0.0000
				CHANNELS 3 Zrotation Yrotation Xrotation
				JOINT lfoot    
				{
					OFFSET 0.0000 -38.2947 0.0000
					CHANNELS 3 Zrotation Yrotation Xrotation
					JOINT ltoes    
					{
						OFFSET 0.0000 0.0000 16.6054
						CHANNELS 3 Zrotation Yrotation Xrotation
						End Site
						{
							OFFSET 0.0000 0.0000 5.5351
						}
					}
				}
			}
		}
	}
}
MOTION
Frames: 13
Frame Time: .0333333
-23.753 76.216 -2.5881 -152.773 85.576 -131.798 0 -0 0 5.07956 -9.35797 20.4211 22.4887 -9.03614 7.02642e-05 58.2906 -14.6133 -1.80188 -0 83.2161 -0 -8.22915 2.36564 -0.170197 -18.7162 11.6093 -3.33082e-05 -43.2793 -7.37608 8.14412 -180 -82.2712 180 -3.65305 4.81009 -0.153503 -3.32639 7.58945 -19.8923 1.63905 -8.0528 -61.8616 -0 -0 44.2664 3.64511e-06 2.61522 11.7672 0.5337 1.31998e-06 -61.0316 4.753 6.36436 -22.3686 -0 -0 59.4742 -6.58997e-06 12.9283 -12.7977 -2.91072 -2.27854e-05 -61.9957 
-22.924 76.045 -2.3531 -152.003 85.3785 -131.069 0 -0 0 5.64164 -9.34774 20.5585 22.5464 -8.82934 -7.00874e-05 58.0262 -14.2885 -1.9514 -2.39615e-06 83.2072 -2.69853e-06 -8.22598 2.36324 -0.169998 -18.7489 11.5465 4.73917e-06 -44.0861 -6.42135 8.44915 180 -82.779 -180 -3.55365 5.00157 -0.155297 -3.59597 7.77827 -20.1835 2.20779 -8.37841 -62.1106 -0 -0 45.8544 3.05918e-06 2.86963 11.0652 0.55119 2.85906e-06 -58.7708 5.21161 6.43932 -22.0625 -0 -0 59.9848 -3.00761e-05 12.7769 -12.1881 -2.74087 4.29489e-06 -62.762 
-22.107 75.889 -2.1161 -150.98 85.1787 -130.07 0 -0 0 6.19948 -9.29949 20.6673 22.6021 -8.61629 1.16363e-05 57.7692 -13.9305 -2.09767 -1.89231e-06 83.1428 -1.67847e-06 -8.24172 2.34643 -0.169099 -18.7433 11.4841 6.09224e-06 -44.9886 -5.47259 8.74966 180 -83.3878 -180 -3.41704 5.20494 -0.155397 -3.81202 7.9687 -20.4126 2.79482 -8.66742 -62.3108 -0 -0 47.3272 8.23217e-07 3.0021 10.1315 0.528609 3.17682e-06 -56.2477 5.68269 6.55483 -21.7897 -0 -0 60.4857 4.97624e-05 12.6199 -11.5369 -2.56392 -4.83966e-05 -63.3601 
-21.301 75.747 -1.8797 -149.917 84.9947 -129.012 0 -0 0 6.73225 -9.21698 20.7442 22.6574 -8.40691 5.1248e-05 57.5319 -13.5417 -2.23505 -4.71855e-06 83.0314 -4.87508e-06 -8.27537 2.31425 -0.167405 -18.6988 11.425 -3.08281e-05 -45.9647 -4.53113 9.04025 -180 -84.1013 180 -3.25269 5.40876 -0.153705 -3.96373 8.15844 -20.5716 3.36446 -8.90712 -62.4571 -0 -0 48.6814 -2.73671e-06 3.04524 9.02892 0.478299 -2.74195e-06 -53.574 6.14921 6.69795 -21.5483 -0 -0 60.9726 -3.26377e-05 12.4677 -10.8545 -2.38417 4.01437e-05 -63.832 
-20.506 75.617 -1.6447 -148.926 84.8157 -128.009 0 -0 0 7.23536 -9.10126 20.7851 22.7167 -8.20972 3.18389e-05 57.313 -13.1333 -2.36467 -2.583e-06 82.8784 -2.28053e-06 -8.32306 2.26514 -0.164802 -18.6167 11.3766 1.18807e-05 -46.9977 -3.61685 9.32817 -180 -84.9279 180 -3.07267 5.60584 -0.150498 -4.04874 8.33462 -20.663 3.89436 -9.09015 -62.5527 -0 -0 49.918 5.61366e-06 3.02482 7.8265 0.412294 1.72265e-06 -50.8642 6.6049 6.8537 -21.333 -0 -0 61.4385 -1.24919e-05 12.3275 -10.1416 -2.20376 1.70146e-05 -64.2486 
-19.722 75.499 -1.4146 -148.182 84.6403 -127.24 0 -0 0 7.68655 -8.96245 20.7902 22.7798 -8.03159 0.000103101 57.1231 -12.7062 -2.48026 -1.57058e-06 82.7057 -1.78446e-06 -8.37924 2.20332 -0.161406 -18.5042 11.3365 2.75402e-05 -48.0569 -2.72075 9.60133 -180 -85.84 180 -2.89035 5.78199 -0.146002 -4.06119 8.49883 -20.688 4.34908 -9.20883 -62.5978 -0 -0 51.0441 2.81687e-06 2.95538 6.59637 0.339803 -9.64746e-07 -48.2617 7.02878 7.00318 -21.1423 -0 -0 61.879 -1.65693e-05 12.213 -9.39762 -2.02406 5.76957e-06 -64.6903 
-18.949 75.39 -1.1912 -147.764 84.483 -126.78 0 -0 0 8.08208 -8.80634 20.76 22.8503 -7.87705 1.53534e-05 56.9599 -12.269 -2.58241 -0 82.5102 -0 -8.43664 2.13296 -0.157296 -18.3692 11.3037 5.02445e-05 -49.1152 -1.8489 9.85863 -180 -86.8499 180 -2.71956 5.92983 -0.140899 -4.00371 8.64275 -20.6541 4.71173 -9.26095 -62.601 -0 -0 52.0746 -1.12163e-06 2.84119 5.40256 0.267701 6.69581e-07 -45.9006 7.41307 7.12883 -20.9758 -0 -0 62.2923 -4.64928e-06 12.1336 -8.61335 -1.84426 -1.5573e-05 -65.2387 
-18.187 75.29 -0.9764 -147.758 84.3324 -126.72 0 -0 0 8.4195 -8.6408 20.6995 22.9282 -7.74736 9.11278e-05 56.8268 -11.8262 -2.67175 -2.40719e-06 82.3245 -2.10464e-06 -8.48861 2.05985 -0.152894 -18.2232 11.2777 2.2129e-05 -50.1506 -1.0062 10.0992 180 -87.9223 180 -2.57218 6.0429 -0.135799 -3.88143 8.76092 -20.5719 4.96975 -9.24803 -62.5695 -0 -0 53.0238 -1.31826e-06 2.67725 4.29576 0.200704 9.75747e-07 -43.9028 7.75059 7.21341 -20.8374 -0 -0 62.6787 -2.50653e-05 12.0984 -7.77735 -1.66147 2.14072e-05 -65.9479 
-17.438 75.2 -0.7716 -148.204 84.1778 -127.103 0 -0 0 8.70044 -8.47428 20.615 23.0158 -7.64132 4.46332e-05 56.7196 -11.3861 -2.7514 -0 82.1555 -0 -8.52858 1.9911 -0.148502 -18.076 11.2559 7.10498e-05 -51.1386 -0.196123 10.3221 -180 -89.0855 180 -2.45697 6.11843 -0.131298 -3.70261 8.84951 -20.4525 5.11954 -9.17614 -62.5103 -0 -0 53.9065 -4.02593e-07 2.45426 3.30746 0.141703 2.99726e-07 -42.3503 8.03718 7.2429 -20.7275 -0 -0 63.0417 1.04486e-05 12.1143 -6.87645 -1.47206 2.29926e-05 -66.8351 
-16.701 75.12 -0.5781 -149.083 84.034 -127.907 0 -0 0 8.93113 -8.31367 20.5127 23.111 -7.55489 -7.77732e-06 56.6356 -10.9526 -2.82411 -1.63957e-06 82.0135 -1.42561e-06 -8.55085 1.93326 -0.144495 -17.9411 11.2344 -4.89813e-05 -52.0581 0.578209 10.5261 4.60457e-05 -89.7389 -4.62592e-05 -2.37922 6.15645 -0.128001 -3.47723 8.90474 -20.3098 5.16567 -9.05519 -62.4274 -0 -0 54.7373 -1.09292e-06 2.16227 2.4473 0.0923987 2.34042e-07 -41.2628 8.27219 7.2072 -20.65 -0 -0 63.3869 6.0057e-06 12.1881 -5.90006 -1.27191 -1.22748e-05 -67.8597 
-15.979 75.051 -0.3966 -150.389 83.8629 -129.137 0 -0 0 9.12033 -8.16659 20.4038 23.2126 -7.48246 -6.09615e-05 56.5733 -10.5284 -2.89341 -4.05193e-06 81.9067 -4.20856e-06 -8.55221 1.89187 -0.141498 -17.828 11.2039 2.09364e-05 -52.8994 1.322 10.7068 5.70976e-06 -88.4951 -5.86072e-06 -2.33914 6.15927 -0.125901 -3.21667 8.92553 -20.1551 5.11954 -8.89809 -62.3245 -0 -0 55.5221 1.2305e-07 1.79306 1.70801 0.0535008 -3.53996e-07 -40.6289 8.45805 7.10122 -20.6088 -0 -0 63.716 -1.00915e-05 12.3246 -4.84289 -1.05671 -5.64249e-06 -68.9252 
-15.27 74.996 -0.2273 -152.064 83.6732 -130.733 0 -0 0 9.28001 -8.03557 20.2979 23.3174 -7.42068 -2.22078e-05 56.5259 -10.1148 -2.96224 -4.01657e-06 81.8314 -4.17322e-06 -8.53304 1.87213 -0.1397 -17.7446 11.1762 4.61338e-05 -53.6511 2.00848 10.8806 1.27795e-06 -87.2327 -1.87707e-06 -2.33263 6.1346 -0.125002 -2.93176 8.90865 -19.9987 5.00128 -8.72305 -62.2019 -0 -0 56.2718 9.56261e-07 1.34746 1.0564 0.0248003 -4.88653e-08 -40.2942 8.6006 6.92698 -20.6044 -0 -0 64.0407 9.59178e-06 12.5253 -3.70461 -0.822407 -3.75631e-06 -69.89 
-14.575 74.954 -0.0699 -153.996 83.4585 -132.586 0 -0 0 9.42099 -7.92399 20.2044 23.4226 -7.3627 2.03961e-05 56.4907 -9.71165 -3.03376 -2.7716e-06 81.8038 -3.19957e-06 -8.49477 1.87606 -0.139305 -17.6967 11.1506 -1.23036e-05 -54.3137 2.6311 11.0528 0 -85.9305 0 -2.35042 6.08801 -0.125001 -2.63227 8.85437 -19.8498 4.83023 -8.54552 -62.057 -0 -0 56.9822 5.69719e-08 0.828801 0.460998 0.00669986 -1.65642e-08 -40.1824 8.70587 6.6912 -20.6418 -0 -0 64.3636 2.37812e-06 12.794 -2.49859 -0.567192 4.87175e-06 -70.5758 
